<svg width="32" height="32" fill="none" xmlns="http://www.w3.org/2000/svg"><path fill-rule="evenodd" clip-rule="evenodd" d="M16.8802 28.4322C14.5494 28.4322 13.4662 28.0905 11.5835 26.7236C10.3926 28.2614 6.62141 29.4631 6.45696 27.407C6.45696 25.8635 6.1167 24.5592 5.73107 23.1353C5.27173 21.3811 4.75 19.4275 4.75 16.5968C4.75 9.83615 10.2735 4.75 16.8178 4.75C23.3677 4.75 28.4999 10.0868 28.4999 16.6595C28.5219 23.1305 23.3232 28.3977 16.8802 28.4322ZM16.9766 10.5937C13.7895 10.4285 11.3056 12.6441 10.7555 16.1184C10.3019 18.9946 11.1071 22.4974 11.7933 22.6797C12.1222 22.7594 12.9502 22.0873 13.4662 21.5691C14.3196 22.1611 15.3133 22.5167 16.3471 22.6C19.6494 22.7595 22.4711 20.2345 22.6929 16.9215C22.822 13.6014 20.2794 10.7894 16.9766 10.5994L16.9766 10.5937Z" fill="url(#paint0_linear_871_2686)"/><defs><linearGradient id="paint0_linear_871_2686" x1="4.75" y1="16.625" x2="28.5" y2="16.625" gradientUnits="userSpaceOnUse"><stop stop-color="#3C4FF7"/><stop offset="1" stop-color="#B35CDD"/></linearGradient></defs></svg>