<svg width="64" height="64" fill="none" xmlns="http://www.w3.org/2000/svg"><rect width="64" height="64" fill="#3526EB"/><path d="M20.2574 24.5498V50.5301H25.1048L26.6603 47.0888C27.847 47.9307 29.2517 48.619 30.8708 49.1569C32.4934 49.6948 34.1326 49.9655 35.7954 49.9655C37.0592 49.9655 38.0817 49.8419 38.8594 49.5913C39.6372 49.3407 40.2104 48.9932 40.5792 48.5455C40.9479 48.0978 41.1323 47.5866 41.1323 47.0086C41.1323 46.2736 40.8406 45.6889 40.2607 45.2545C39.6807 44.8202 38.9164 44.466 37.9677 44.1887C37.019 43.9114 35.9697 43.6508 34.8232 43.4002C33.6767 43.1496 32.5302 42.8423 31.3837 42.4748C30.2372 42.1072 29.188 41.6328 28.2393 41.0548C27.2905 40.4768 26.5195 39.715 25.9262 38.7695C25.3328 37.824 25.0344 36.6145 25.0344 35.1444C25.0344 33.5674 25.4635 32.1274 26.3217 30.8277C27.1799 29.528 28.4706 28.4889 30.197 27.7138C31.9235 26.9387 34.0924 26.5511 36.7039 26.5511C38.4437 26.5511 40.1568 26.7549 41.8463 27.1625C42.6274 27.3496 43.3649 27.5835 44.0589 27.8608V24.5498H20.2574Z" fill="white"/><path d="M36.6669 31.6763C35.4265 31.6763 34.4108 31.8199 33.623 32.1106C32.8318 32.4013 32.2653 32.7755 31.9234 33.2332C31.5814 33.6909 31.4105 34.2255 31.4105 34.8303C31.4105 35.5386 31.7021 36.1132 32.2821 36.5442C32.862 36.9786 33.6263 37.3261 34.5751 37.59C35.5238 37.8539 36.573 38.1145 37.7195 38.3785C38.866 38.6424 40.0125 38.9431 41.1624 39.2873C42.215 39.6013 43.1805 40.019 44.0655 40.5302V33.6909C42.8654 33.0328 41.6686 32.5383 40.4684 32.2075C39.1778 31.8533 37.9106 31.6763 36.6703 31.6763H36.6669Z" fill="white"/><path d="M39.2217 20.7409H35.7923C35.7923 18.7463 34.1631 17.1225 32.1617 17.1225C30.1604 17.1225 28.5312 18.7463 28.5312 20.7409H25.0984C25.0984 16.8619 28.2663 13.7046 32.1617 13.7046C36.0571 13.7046 39.2217 16.8619 39.2217 20.7409Z" fill="white"/></svg>